<svg width="166" height="59" viewBox="0 0 166 59" fill="none" xmlns="http://www.w3.org/2000/svg">
<g id="Logo">
<path id="Vector" d="M45.8625 57.2354V59H42.9478C35.9862 59 34.043 58.8492 31.2737 52.6581L19.9745 30.3823H16.3866V51.3988C16.3866 55.9007 17.427 57.2279 24.3886 57.2279V58.9925H0V57.2279C6.96161 57.2279 8.00968 55.8932 8.00968 51.3988V7.60123C8.00968 3.09931 6.96161 1.77211 0 1.77211V0H22.5985C35.0988 0 41.8309 5.16552 41.8309 14.9008C41.8309 26.3328 32.6278 29.4321 23.7919 30.1636H24.3886V30.3823C27.8311 31.1967 30.6005 33.1121 33.2933 38.5717L40.1861 52.2132C42.3587 56.4889 41.3719 57.2279 45.8625 57.2279M33.2321 14.75C33.2321 6.85468 28.5885 3.0239 22.3001 3.0239C20.0586 3.0239 17.9625 3.53668 16.3942 4.3511V27.3584H18.4138C24.3197 27.4338 33.2321 25.5184 33.2321 14.75Z" fill="var(--fill-0, white)"/>
<path id="Vector_2" d="M77.8323 51.8361C76.7919 55.599 75.4378 58.3213 71.1002 58.3213C66.7626 58.3213 64.743 55.5991 64.743 51.0217V50.7352H64.59C63.1671 53.0201 59.8775 58.3289 53.3672 58.3289C48.1269 58.3289 44.9062 54.7168 44.9062 49.0385C44.9062 39.5973 53.2907 36.6563 61.2163 33.1121L64.7353 31.4908V28.022C64.7353 22.4945 64.0621 19.0257 59.0436 19.0257C56.1213 19.0257 53.8798 20.3529 53.8798 22.5699C53.8798 24.342 55.0809 25.1414 55.0809 27.1397C55.0809 28.9043 53.5049 30.0806 51.1105 30.0806C48.5018 30.0806 46.9947 28.2407 46.9947 24.9905C46.9947 19.6893 52.3115 16.4392 59.5638 16.4392C66.8162 16.4392 71.7581 20.1342 71.7581 28.1653V51.8437C71.7581 54.1286 71.98 55.3125 73.4029 55.3125C74.6805 55.3125 75.2007 54.204 76.0958 51.8437H77.817L77.8323 51.8361ZM64.743 47.8545V34.2131L61.4458 35.7589C55.6929 38.4133 51.8678 41.95 51.8678 47.1909C51.8678 51.1725 53.8875 53.1709 56.8098 53.1709C59.7321 53.1709 61.8971 51.4666 64.743 47.8621" fill="var(--fill-0, white)"/>
<path id="Vector_3" d="M94.303 19.6817V17.9172H106.65V19.6817C103.43 19.6817 102.16 20.7073 100.813 25.2846L91.2354 58.5475H86.8977L76.9449 25.2846C75.5985 20.6394 74.2521 19.6817 71.1155 19.6817V17.9172H88.1753V19.6817C83.7535 19.6817 83.7535 20.7073 85.1076 25.2846L91.3119 46.6706H91.5414L97.7533 25.2846C99.0997 20.7148 99.0997 19.6817 94.3107 19.6817" fill="var(--fill-0, white)"/>
<path id="Vector_4" d="M129.54 41.3694C127.964 52.726 123.022 58.3289 116.068 58.3289C107.538 58.3289 102.374 50.2903 102.374 37.6819C102.374 26.3253 107.614 16.4392 116.741 16.4392C125.263 16.4392 129.463 24.5532 129.463 35.3216H109.634V35.6157C109.634 45.6451 112.702 52.8768 118.607 52.8768C122.203 52.8768 125.638 50.0716 127.734 41.3694H129.54ZM109.71 32.2901H122.28C122.28 25.2092 120.925 19.5385 116.442 19.5385C111.96 19.5385 110.085 24.8473 109.71 32.2901Z" fill="var(--fill-0, white)"/>
<path id="Vector_5" d="M140.785 24.0328H141.007C143.853 19.9758 147.739 16.4316 152.681 16.4316C158.22 16.4316 160.691 20.2624 160.691 27.0567V49.2496C160.691 53.9702 161.433 55.8328 166.008 55.8328V57.5974H148.795V55.8328C152.987 55.8328 153.66 53.9702 153.66 49.2496V27.0567C153.66 23.2184 152.459 21.1522 149.537 21.1522C146.615 21.1522 143.478 23.6633 140.785 27.1322V49.2496C140.785 53.9702 141.458 55.8328 145.651 55.8328V57.5974H128.438V55.8328C133.005 55.8328 133.755 53.9702 133.755 49.2496V27.0567C133.755 22.2607 133.831 21.303 129.639 23.3617L128.813 21.8158L134.428 19.086L139.737 16.4316L140.785 17.4647V24.0253V24.0328Z" fill="var(--fill-0, white)"/>
</g>
</svg>
